<?xml version="1.0" encoding="utf-8"?>
<!-- Generator: Adobe Illustrator 27.7.0, SVG Export Plug-In . SVG Version: 6.00 Build 0)  -->
<svg version="1.1" id="Layer_1" xmlns="http://www.w3.org/2000/svg" xmlns:xlink="http://www.w3.org/1999/xlink" x="0px" y="0px"
	 viewBox="0 0 1417.32 310.2" style="enable-background:new 0 0 1417.32 310.2;" xml:space="preserve">
<style type="text/css">
	.st0{fill:#FFFFFF;}
</style>
<g>
	<g>
		<g>
			<g>
				<g>
					<path class="st0" d="M216.05,216.25c-4.11,0-7.45-3.37-7.45-7.51v-93.77c0-3.59-2.89-6.5-6.45-6.5h-36.88
						c-4.11,0-7.45-3.37-7.45-7.5c0-4.14,3.34-7.51,7.45-7.51h102.86c4.11,0,7.45,3.37,7.45,7.5c0,4.14-3.34,7.51-7.45,7.51h-36.99
						c-3.56,0-6.45,2.92-6.45,6.5v93.77c0,4.14-3.34,7.51-7.45,7.51H216.05z"/>
					<path class="st0" d="M268.13,93.97c3.84,0,6.95,3.14,6.95,7.01v0c0,3.87-3.11,7.01-6.95,7.01h-36.99
						c-3.84,0-6.95,3.14-6.95,7.01v93.77c0,3.87-3.11,7.01-6.95,7.01h-1.2c-3.84,0-6.95-3.14-6.95-7.01v-93.77
						c0-3.87-3.11-7.01-6.95-7.01h-36.88c-3.84,0-6.95-3.14-6.95-7.01v0c0-3.87,3.11-7.01,6.95-7.01H268.13 M268.13,92.97H165.27
						c-4.38,0-7.95,3.59-7.95,8.01c0,4.41,3.57,8.01,7.95,8.01h36.88c3.28,0,5.95,2.69,5.95,6.01v93.77c0,4.41,3.57,8.01,7.95,8.01
						h1.2c4.38,0,7.95-3.59,7.95-8.01v-93.77c0-3.31,2.67-6.01,5.95-6.01h36.99c4.38,0,7.95-3.59,7.95-8.01
						S272.52,92.97,268.13,92.97L268.13,92.97z"/>
				</g>
				<g>
					<path class="st0" d="M317.89,216.73c-4.23,0-7.67-3.44-7.67-7.68v-0.21c0-2.91,1.61-5.53,4.21-6.84l18.33-9.26l30.27-14.8
						l19.01-9.49c5.18-2.59,8.27-7.59,8.26-13.38s-3.12-10.79-8.31-13.36l-18.98-9.39l-30.42-14.93l-18.08-8.89
						c-2.64-1.3-4.28-3.94-4.28-6.88c0-4.23,3.44-7.68,7.67-7.68c1.17,0,2.3,0.27,3.37,0.79l103.95,50.94
						c3.55,1.74,5.85,5.42,5.85,9.38c0,4-2.23,7.59-5.81,9.36l-103.96,51.51C320.21,216.46,319.06,216.73,317.89,216.73z"/>
					<path class="st0" d="M317.88,94.44c1.05,0,2.12,0.23,3.15,0.74l103.95,50.94c3.41,1.67,5.57,5.14,5.57,8.93v0
						c0,3.78-2.14,7.23-5.53,8.91l-103.96,51.51c-1.04,0.52-2.13,0.75-3.18,0.75c-3.76,0-7.17-3.02-7.17-7.18v-0.21
						c0-2.7,1.52-5.18,3.94-6.4l18.33-9.26l30.26-14.79l19.01-9.49c11.41-5.69,11.38-21.98-0.05-27.64l-18.98-9.39l-30.42-14.93
						l-18.08-8.89c-2.45-1.21-4.01-3.7-4.01-6.43v0C310.72,97.47,314.12,94.44,317.88,94.44 M317.89,93.44L317.89,93.44
						c-4.5,0-8.17,3.67-8.17,8.18c0,3.14,1.75,5.95,4.56,7.33l18.08,8.89l30.42,14.93l18.98,9.39c5.02,2.48,8.02,7.31,8.03,12.91
						s-2.98,10.44-7.99,12.94l-19.01,9.49l-30.25,14.79l-18.34,9.26c-2.77,1.4-4.49,4.19-4.49,7.29v0.21c0,4.51,3.66,8.18,8.17,8.18
						c1.26,0,2.47-0.29,3.62-0.86l103.96-51.51c3.75-1.86,6.09-5.62,6.09-9.81c0-4.15-2.41-8.01-6.13-9.83L321.48,94.29
						C320.34,93.73,319.13,93.44,317.89,93.44L317.89,93.44z"/>
				</g>
				<g>
					<path class="st0" d="M510.44,216.25c-16.17,0-28.35-2.94-36.18-8.74c-7.88-5.83-11.88-14.83-11.88-26.74v-11.46
						c0-4.3,3.5-7.81,7.81-7.81c4.3,0,7.81,3.5,7.81,7.81v11.04c0,7.39,2.74,12.8,8.13,16.1c5.48,3.35,14.56,5.05,26.99,5.05
						c12.18,0,20.59-2.11,24.99-6.26c4.39-4.15,6.62-12.24,6.62-24.06v-68.95c0-4.3,3.5-7.81,7.81-7.81c4.3,0,7.81,3.5,7.81,7.81
						v72.89c0,14.59-3.9,25.22-11.59,31.58C541.06,213.04,528.18,216.25,510.44,216.25z"/>
					<path class="st0" d="M552.52,94.92c4.03,0,7.31,3.27,7.31,7.31v72.89c0,14.5-3.8,24.9-11.41,31.19
						c-7.61,6.29-20.26,9.44-37.97,9.44c-16.14,0-28.1-2.88-35.89-8.64c-7.79-5.76-11.68-14.54-11.68-26.34v-11.46
						c0-4.03,3.27-7.31,7.31-7.31h0c4.03,0,7.31,3.27,7.31,7.31v11.04c0,7.61,2.79,13.12,8.37,16.53
						c5.58,3.41,14.66,5.12,27.25,5.12c12.37,0,20.81-2.13,25.33-6.4c4.51-4.27,6.77-12.41,6.77-24.42v-68.95
						C545.21,98.19,548.48,94.92,552.52,94.92 M552.52,93.92c-4.58,0-8.31,3.73-8.31,8.31v68.95c0,11.67-2.17,19.65-6.46,23.7
						c-4.3,4.06-12.59,6.13-24.64,6.13c-12.34,0-21.33-1.67-26.73-4.97c-5.31-3.25-7.89-8.38-7.89-15.68v-11.04
						c0-4.58-3.73-8.31-8.31-8.31s-8.31,3.73-8.31,8.31v11.46c0,12.08,4.07,21.22,12.08,27.15c7.92,5.86,20.2,8.83,36.48,8.83
						c17.86,0,30.85-3.25,38.6-9.67c7.81-6.46,11.77-17.22,11.77-31.97v-72.89C560.82,97.65,557.1,93.92,552.52,93.92L552.52,93.92z
						"/>
				</g>
			</g>
		</g>
		<g>
			<g>
				<path class="st0" d="M773.29,216.25c-4.36,0-7.91-3.55-7.91-7.91v-80.88c0-0.89-0.73-1.42-1.44-1.42
					c-0.27,0-0.79,0.08-1.15,0.63l-38.4,57.25c-1.47,2.19-3.93,3.5-6.57,3.5c-2.64,0-5.1-1.31-6.57-3.5l-38.4-57.25
					c-0.37-0.55-0.88-0.63-1.15-0.63c-0.7,0-1.44,0.5-1.44,1.42v80.88c0,4.36-3.55,7.91-7.91,7.91s-7.91-3.55-7.91-7.91V102.03
					c0-4.36,3.55-7.91,7.91-7.91h2.54c2.66,0,5.13,1.33,6.6,3.55l40.58,61.5c1.28,1.94,3.44,3.1,5.76,3.1
					c2.32,0,4.47-1.15,5.75-3.09l40.88-61.54c1.47-2.21,3.93-3.53,6.58-3.53h2.34c4.36,0,7.91,3.55,7.91,7.91v106.32
					c0,4.36-3.55,7.91-7.91,7.91H773.29z"/>
				<path class="st0" d="M773.4,94.62c4.09,0,7.41,3.32,7.41,7.41v106.32c0,4.09-3.32,7.41-7.41,7.41h-0.11
					c-4.09,0-7.41-3.32-7.41-7.41v-80.88c0-1.18-0.96-1.92-1.94-1.92c-0.58,0-1.18,0.26-1.57,0.85l-38.4,57.25
					c-1.47,2.19-3.81,3.28-6.15,3.28s-4.68-1.09-6.15-3.28l-38.4-57.25c-0.39-0.59-0.99-0.85-1.57-0.85c-0.98,0-1.94,0.74-1.94,1.92
					v80.88c0,4.09-3.32,7.41-7.41,7.41s-7.41-3.32-7.41-7.41V102.03c0-4.09,3.32-7.41,7.41-7.41h2.54c2.49,0,4.81,1.25,6.18,3.33
					l40.58,61.5c1.46,2.22,3.82,3.33,6.18,3.33c2.35,0,4.7-1.1,6.17-3.31l40.88-61.54c1.37-2.07,3.69-3.31,6.17-3.31H773.4
					 M773.4,93.62h-2.34c-2.82,0-5.44,1.4-7,3.76l-40.88,61.54c-1.21,1.82-3.15,2.86-5.34,2.86c-2.16,0-4.16-1.08-5.35-2.88
					l-40.58-61.5c-1.56-2.36-4.18-3.78-7.02-3.78h-2.54c-4.64,0-8.41,3.77-8.41,8.41v106.32c0,4.64,3.77,8.41,8.41,8.41
					s8.41-3.77,8.41-8.41v-80.88c0-0.27,0.09-0.5,0.28-0.67c0.18-0.16,0.42-0.25,0.66-0.25c0.21,0,0.51,0.07,0.74,0.41l38.4,57.25
					c1.56,2.33,4.17,3.72,6.98,3.72s5.42-1.39,6.98-3.72l38.4-57.25c0.23-0.34,0.53-0.41,0.74-0.41c0.36,0,0.94,0.25,0.94,0.92
					v80.88c0,4.64,3.77,8.41,8.41,8.41h0.11c4.64,0,8.41-3.77,8.41-8.41V102.03C781.81,97.39,778.04,93.62,773.4,93.62L773.4,93.62z
					"/>
			</g>
			<g>
				<path class="st0" d="M823.23,216.25c-4.12,0-7.47-3.35-7.47-7.47v-107.2c0-4.12,3.35-7.47,7.47-7.47h81.3
					c4.12,0,7.47,3.35,7.47,7.47s-3.35,7.47-7.47,7.47H834.8c-1.66,0-3.01,1.35-3.01,3.01v28.53c0,1.66,1.35,3.01,3.01,3.01h38.02
					c4.12,0,7.47,3.35,7.47,7.47s-3.35,7.47-7.47,7.47H834.8c-1.66,0-3.01,1.35-3.01,3.01v36.76c0,1.66,1.35,3.01,3.01,3.01h74.67
					c4.12,0,7.47,3.35,7.47,7.47s-3.35,7.47-7.47,7.47H823.23z"/>
				<path class="st0" d="M904.53,94.62c3.85,0,6.97,3.12,6.97,6.97v0c0,3.85-3.12,6.97-6.97,6.97H834.8c-1.94,0-3.51,1.57-3.51,3.51
					v28.53c0,1.94,1.57,3.51,3.51,3.51h38.02c3.85,0,6.97,3.12,6.97,6.97s-3.12,6.97-6.97,6.97H834.8c-1.94,0-3.51,1.57-3.51,3.51
					v36.76c0,1.94,1.57,3.51,3.51,3.51h74.67c3.85,0,6.97,3.12,6.97,6.97c0,3.85-3.12,6.97-6.97,6.97h-86.24
					c-3.85,0-6.97-3.12-6.97-6.97v-107.2c0-3.85,3.12-6.97,6.97-6.97H904.53 M904.53,93.62h-81.3c-4.39,0-7.97,3.57-7.97,7.97v107.2
					c0,4.39,3.57,7.97,7.97,7.97h86.24c4.39,0,7.97-3.57,7.97-7.97s-3.57-7.97-7.97-7.97H834.8c-1.38,0-2.51-1.13-2.51-2.51v-36.76
					c0-1.38,1.13-2.51,2.51-2.51h38.02c4.39,0,7.97-3.57,7.97-7.97s-3.57-7.97-7.97-7.97H834.8c-1.38,0-2.51-1.13-2.51-2.51v-28.53
					c0-1.38,1.13-2.51,2.51-2.51h69.73c4.39,0,7.97-3.57,7.97-7.97C912.5,97.2,908.92,93.62,904.53,93.62L904.53,93.62z"/>
			</g>
			<g>
				<path class="st0" d="M961.72,216.25c-8.15,0-14.78-6.63-14.78-14.78V108.9c0-8.15,6.63-14.78,14.78-14.78h37.62
					c19.14,0,34.78,5.73,46.49,17.04c11.71,11.31,17.65,26.23,17.65,44.36c0,18.27-5.85,33.12-17.38,44.14
					c-11.53,11.01-27.26,16.6-46.76,16.6H961.72z M968.33,109.06c-2.95,0-5.35,2.4-5.35,5.35v81.56c0,2.95,2.4,5.35,5.35,5.35h31.01
					c14.72,0,26.45-4.18,34.87-12.42c8.42-8.23,12.69-19.54,12.69-33.6c0-13.84-4.34-25.13-12.91-33.55
					c-8.57-8.42-20.23-12.69-34.65-12.69H968.33z"/>
				<path class="st0" d="M999.34,94.62c19.09,0,34.47,5.63,46.14,16.9c11.67,11.26,17.5,25.93,17.5,44
					c0,18.21-5.74,32.81-17.22,43.78c-11.48,10.97-26.95,16.46-46.41,16.46h-37.62c-7.89,0-14.28-6.39-14.28-14.28V108.9
					c0-7.89,6.39-14.28,14.28-14.28H999.34 M968.33,201.82h31.01c14.92,0,26.66-4.19,35.22-12.56c8.56-8.37,12.84-19.69,12.84-33.96
					c0-14.04-4.35-25.35-13.06-33.9c-8.71-8.56-20.37-12.84-35-12.84h-31.01c-3.23,0-5.85,2.62-5.85,5.85v81.56
					C962.47,199.2,965.09,201.82,968.33,201.82 M999.34,93.62h-37.62c-8.42,0-15.28,6.85-15.28,15.28v92.57
					c0,8.42,6.85,15.28,15.28,15.28h37.62c19.63,0,35.48-5.63,47.1-16.73c11.63-11.11,17.53-26.09,17.53-44.5
					c0-18.27-5.99-33.31-17.8-44.72C1034.36,99.4,1018.61,93.62,999.34,93.62L999.34,93.62z M968.33,200.82
					c-2.68,0-4.85-2.18-4.85-4.85v-81.56c0-2.68,2.18-4.85,4.85-4.85h31.01c14.29,0,25.83,4.22,34.3,12.55
					c8.46,8.32,12.76,19.49,12.76,33.19c0,13.92-4.22,25.1-12.54,33.24c-8.32,8.15-19.94,12.28-34.52,12.28H968.33L968.33,200.82z"
					/>
			</g>
			<g>
				<path class="st0" d="M1099.16,216.25c-4.48,0-8.12-3.65-8.12-8.13V101.59c0-4.48,3.64-8.13,8.12-8.13s8.13,3.65,8.13,8.13
					v106.54C1107.29,212.61,1103.64,216.25,1099.16,216.25z"/>
				<path class="st0" d="M1099.16,93.97c4.21,0,7.63,3.41,7.63,7.63v106.54c0,4.21-3.41,7.63-7.63,7.63h0
					c-4.21,0-7.63-3.41-7.63-7.63V101.59C1091.54,97.38,1094.95,93.97,1099.16,93.97L1099.16,93.97 M1099.16,92.97
					c-4.76,0-8.63,3.87-8.63,8.63v106.54c0,4.76,3.87,8.63,8.63,8.63c4.76,0,8.63-3.87,8.63-8.63V101.59
					C1107.79,96.83,1103.92,92.97,1099.16,92.97L1099.16,92.97z"/>
			</g>
			<g>
				<path class="st0" d="M1251.53,216.25c-2.94,0-5.59-1.63-6.91-4.25l-14.45-28.61l-6.7-14.17l-20.26-40.6
					c-1.17-2.34-3.42-3.73-6.03-3.73c-2.62,0-4.88,1.4-6.04,3.75l-20.09,40.59l-6.91,14.15l-14.03,28.54
					c-1.31,2.67-3.98,4.33-6.95,4.33c-2.69,0-5.15-1.36-6.57-3.65s-1.57-5.09-0.38-7.51l52.26-106.64c1.29-2.63,4.02-4.34,6.96-4.34
					h3.5c2.96,0,5.62,1.65,6.94,4.31l52.84,106.64c1.2,2.42,1.06,5.23-0.36,7.52c-1.42,2.29-3.88,3.66-6.58,3.66H1251.53z"/>
				<path class="st0" d="M1198.91,94.62c2.75,0,5.27,1.56,6.49,4.03l52.84,106.64c2.39,4.82-1.12,10.46-6.49,10.46h-0.22
					c-2.73,0-5.23-1.54-6.47-3.98l-14.45-28.61l-6.69-14.15l-20.26-40.61c-1.33-2.67-3.91-4.01-6.48-4.01
					c-2.58,0-5.16,1.34-6.49,4.03l-20.09,40.59l-6.91,14.15l-14.03,28.54c-1.22,2.48-3.74,4.05-6.5,4.05
					c-5.36,0-8.86-5.62-6.51-10.43l52.26-106.64c1.22-2.48,3.74-4.06,6.51-4.06H1198.91 M1198.91,93.62h-3.5
					c-3.12,0-6.03,1.81-7.4,4.62l-52.26,106.64c-1.26,2.57-1.11,5.56,0.41,7.99c1.52,2.43,4.13,3.88,7,3.88c3.17,0,6-1.77,7.4-4.61
					l14.03-28.54l6.91-14.16l20.08-40.58c1.08-2.18,3.17-3.47,5.6-3.47c2.42,0,4.51,1.29,5.59,3.46l20.26,40.61l6.68,14.13
					l14.46,28.63c1.41,2.79,4.23,4.53,7.36,4.53h0.22c2.87,0,5.49-1.46,7.01-3.9c1.51-2.44,1.66-5.43,0.38-8.01L1206.3,98.21
					C1204.89,95.38,1202.06,93.62,1198.91,93.62L1198.91,93.62z"/>
			</g>
		</g>
	</g>
</g>
</svg>
